<svg width="109" height="81" viewBox="0 0 109 81" fill="none" xmlns="http://www.w3.org/2000/svg">
<path d="M107.617 37.6171C108.155 43.2167 108.546 48.8045 108.322 54.5018L95.9211 66.9024C99.5178 53.9773 100.69 39.381 93.9784 24.0939L94.0808 24.0807L107.617 37.6171ZM91.9298 27.8723C98.0443 43.7484 95.4186 58.7134 90.8593 71.9642L82.267 80.5566C80.6716 79.1992 79.0326 78.0366 77.329 77.064C78.9315 76.7376 80.476 76.28 81.7674 75.6049C83.5738 74.6605 85.1212 72.9447 86.4122 71.4313C87.7028 69.9178 88.6452 68.585 88.6452 68.585L85.8943 66.6396C85.8943 66.6396 85.0306 67.8585 83.848 69.2455C82.6652 70.6327 81.0713 72.1665 80.2077 72.6179C78.6122 73.4521 75.2208 74.0835 72.3673 74.3656C71.979 74.4037 71.5902 74.438 71.2012 74.4686C69.6656 74.0257 68.0706 73.7067 66.4046 73.5087C58.3684 72.5548 48.7958 74.2528 35.9102 77.698C32.8446 76.356 29.1816 73.5792 26.0057 70.5504C26.3238 70.4893 26.6371 70.4054 26.9431 70.2992C28.8013 69.6514 30.4341 67.9426 30.6116 65.6501C30.78 63.4799 30.703 60.8037 29.7869 58.3716C29.3863 57.3077 28.7665 56.2762 27.93 55.4229C27.9202 55.4126 27.9095 55.4038 27.8994 55.3937L38.6075 49.5137C40.3311 48.8474 41.6066 47.6317 42.4776 46.2591C43.3723 44.8481 43.9072 43.2781 44.3675 41.7126C45.2863 38.586 45.9713 35.4703 47.4828 33.5834C50.6718 29.7193 55.4709 28.9785 60.4938 26.984L60.968 26.7958L61.2586 26.3755C65.6776 19.9858 66.7473 12.0359 67.7285 3.92242C74.9416 9.82392 80.4033 20.6651 84.7398 28.7538L85.4428 30.0654L86.8319 29.5282C88.5941 28.8474 90.2916 28.2975 91.9298 27.8723ZM38.6075 49.5137C38.5595 49.532 38.5123 49.552 38.4635 49.5695L38.6997 49.4631L38.6075 49.5137ZM62.3113 4.72305C62.8963 5.30596 63.4575 5.91225 63.9936 6.54045C63.0844 13.2075 61.8605 19.2796 58.7449 24.0274C58.4028 24.1557 58.0589 24.2794 57.7135 24.3984C58.844 16.6854 59.3589 8.55835 56.5617 0.0289831C58.8333 1.57943 60.7304 3.14846 62.3113 4.72305ZM65.6396 42.7001L62.6993 41.0545C61.9644 42.3665 59.8873 43.6971 57.3267 44.1883C54.766 44.6799 51.8436 44.3674 49.5869 43.0365L47.8729 45.9402C50.996 47.782 54.6944 48.1255 57.9594 47.499C61.2241 46.8723 64.1768 45.3105 65.6396 42.7001ZM35.1726 38.7439L24.5635 50.6228L29.9325 39.4784L35.1726 38.7439ZM21.7391 33.0128L19.7488 48.5496C19.7488 48.5496 12.8404 34.7178 12.4686 34.0736C12.0967 33.4294 21.7391 33.0128 21.7391 33.0128ZM6.40929 38.1051L14.2947 49.8729L3.31863 40.6814L6.40929 38.1051ZM25.3529 57.1926C19.6594 61.2459 21.942 64.0939 24.2306 67.2547C22.7269 66.396 18.4211 63.0893 19.1041 60.2859C19.6541 58.0279 23.4736 57.4189 25.3529 57.1926ZM12.4939 55.6515L3.84094 53.8409L0.0757093 45.9238L12.4939 55.6515Z" fill="#F21E1E"/>
</svg>
